<svg aria-hidden="true" style="position: absolute; width: 0; height: 0; overflow: hidden;" version="1.1" xmlns="http://www.w3.org/2000/svg" xmlns:xlink="http://www.w3.org/1999/xlink">
<defs>
<symbol id="icon-map" viewBox="0 0 32 32">
<path d="M12.48 5.54c-1.528 0.738-2.728 1.953-3.428 3.449l-0.019 0.044c-0.564 1.106-0.895 2.411-0.895 3.794 0 1.9 0.624 3.654 1.677 5.068l-0.016-0.023 6.62 9.5 6.613-9.5c1.020-1.354 1.633-3.064 1.633-4.918 0-0.017-0-0.034-0-0.051v0.003c0-5.84-6-10.24-12.187-7.367zM16.533 15.673c-0.002 0-0.004 0-0.007 0-1.661 0-3.007-1.346-3.007-3.007s1.346-3.007 3.007-3.007c1.661 0 3.007 1.346 3.007 3.007v0c0 0 0 0 0 0 0 1.658-1.342 3.003-3 3.007h-0z"></path>
</symbol>
<symbol id="icon-logo" viewBox="0 0 32 32">
<path fill="#34495e" style="fill: var(--color1, #34495e)" d="M32 16c0 8.837-7.163 16-16 16s-16-7.163-16-16c0-8.837 7.163-16 16-16s16 7.163 16 16z"></path>
<path fill="#203549" style="fill: var(--color2, #203549)" d="M31.971 16.926l-8.975-8.976-0.606 0.153-3.321 0.834c-0.322 0.080-0.519 0.407-0.437 0.732 0.011 0.046 0.029 0.088 0.049 0.128 0.004 0.008 0.009 0.015 0.014 0.022 0.020 0.035 0.043 0.067 0.069 0.097 0.001 0.001 0.001 0.001 0.001 0.002l0.005 0.005c0.019 0.022 0.040 0.043 0.063 0.062 0.005 0.005 0.009 0.010 0.015 0.014l1.261 1.261c-1.544 1.732-3.705 3.337-6.209 4.566-1.79 0.878-3.611 1.5-5.41 1.849-0.327 0.061-0.542 0.38-0.478 0.706 0.021 0.108 0.069 0.202 0.135 0.279 0 0 0.002 0 0.002 0.002l0.059 0.059c0.005 0.004 0.009 0.007 0.014 0.011l2.155 2.157c-1.316 0.021-2.363 0.432-2.363 0.94v0.59c0 0.018 0.004 0.035 0.007 0.050-0.002 0.016-0.007 0.032-0.007 0.048v0.592c0 0.089 0.032 0.174 0.091 0.254l0.151 0.153c0.002 0.002 0.007 0.004 0.009 0.007l8.46 8.46c8.192-0.366 14.781-6.89 15.247-15.056z"></path>
<path fill="#5d6d7e" style="fill: var(--color3, #5d6d7e)" d="M23.443 22.517c-0.451-0.212-1.141-0.348-1.914-0.348-0.775 0-1.465 0.136-1.916 0.348h-0.549v0.591c0 0.519 1.102 0.942 2.465 0.942 1.359 0 2.463-0.423 2.463-0.942v-0.591h-0.548z"></path>
<path fill="#b8d1e6" style="fill: var(--color4, #b8d1e6)" d="M19.065 22.517v0.462c0 0.519 1.102 0.941 2.465 0.941 1.359 0 2.463-0.422 2.463-0.941v-0.462h-4.927z"></path>
<path fill="#b8d1e6" style="fill: var(--color4, #b8d1e6)" d="M23.992 22.517c0 0.519-1.103 0.941-2.463 0.941-1.363 0-2.465-0.422-2.465-0.941s1.102-0.94 2.465-0.94c1.36 0 2.463 0.42 2.463 0.94z"></path>
<path fill="#f2f9ff" style="fill: var(--color5, #f2f9ff)" d="M21.529 23.36c-1.415 0-2.366-0.436-2.366-0.843 0-0.406 0.951-0.841 2.366-0.841 1.414 0 2.364 0.436 2.364 0.841 0 0.399-0.971 0.843-2.364 0.843z"></path>
<path fill="#b8d1e6" style="fill: var(--color4, #b8d1e6)" d="M21.401 23.042c-0.411-0.012-0.718-0.075-0.929-0.158l0.264-0.138c0.147 0.062 0.378 0.12 0.665 0.137v-0.295c-0.411-0.040-0.841-0.096-0.841-0.294 0-0.155 0.327-0.278 0.841-0.295v-0.14h0.318v0.141c0.323 0.014 0.595 0.063 0.802 0.139l-0.263 0.132c-0.152-0.058-0.343-0.093-0.539-0.108v0.264c0.415 0.041 0.866 0.1 0.866 0.304 0 0.155-0.268 0.292-0.866 0.312v0.137h-0.318v-0.136h0zM21.401 22.393v-0.239c-0.223 0.011-0.363 0.058-0.363 0.125 0 0.059 0.151 0.090 0.363 0.114zM21.719 22.618v0.265c0.276-0.016 0.387-0.078 0.387-0.137 0-0.068-0.167-0.102-0.387-0.128z"></path>
<path fill="#f2f9ff" style="fill: var(--color5, #f2f9ff)" d="M19.216 22.683v0.622c0.047 0.049 0.105 0.095 0.171 0.14v-0.583c-0.076-0.058-0.134-0.118-0.171-0.179z"></path>
<path fill="#f2f9ff" style="fill: var(--color5, #f2f9ff)" d="M23.625 22.889v0.583c0.065-0.040 0.123-0.082 0.172-0.126v-0.606c-0.043 0.050-0.101 0.1-0.172 0.149z"></path>
<path fill="#f2f9ff" style="fill: var(--color5, #f2f9ff)" d="M19.52 22.951v0.572c0.053 0.029 0.11 0.057 0.172 0.083v-0.567c-0.063-0.028-0.12-0.057-0.172-0.087z"></path>
<path fill="#f2f9ff" style="fill: var(--color5, #f2f9ff)" d="M19.825 23.095v0.564c0.055 0.020 0.112 0.039 0.171 0.057v-0.562c-0.060-0.018-0.117-0.038-0.171-0.059z"></path>
<path fill="#5d6d7e" style="fill: var(--color3, #5d6d7e)" d="M23.443 21.828c-0.451-0.212-1.141-0.349-1.914-0.349-0.775 0-1.465 0.136-1.916 0.349h-0.549v0.591c0 0.519 1.102 0.941 2.465 0.941 1.359 0 2.463-0.422 2.463-0.941v-0.591h-0.548z"></path>
<path fill="#b8d1e6" style="fill: var(--color4, #b8d1e6)" d="M19.065 21.828v0.462c0 0.519 1.102 0.941 2.465 0.941 1.359 0 2.463-0.422 2.463-0.941v-0.462h-4.927z"></path>
<path fill="#b8d1e6" style="fill: var(--color4, #b8d1e6)" d="M23.992 21.828c0 0.519-1.103 0.941-2.463 0.941-1.363 0-2.465-0.422-2.465-0.941s1.102-0.94 2.465-0.94c1.36 0 2.463 0.42 2.463 0.94z"></path>
<path fill="#f2f9ff" style="fill: var(--color5, #f2f9ff)" d="M21.529 22.67c-1.415 0-2.366-0.436-2.366-0.842s0.951-0.841 2.366-0.841c1.414 0 2.364 0.435 2.364 0.841 0 0.398-0.971 0.842-2.364 0.842z"></path>
<path fill="#b8d1e6" style="fill: var(--color4, #b8d1e6)" d="M21.401 22.352c-0.411-0.012-0.718-0.075-0.929-0.158l0.264-0.139c0.147 0.063 0.378 0.12 0.665 0.137v-0.296c-0.411-0.039-0.841-0.096-0.841-0.294 0-0.155 0.327-0.279 0.841-0.295v-0.14h0.318v0.142c0.323 0.014 0.595 0.062 0.802 0.139l-0.263 0.132c-0.152-0.057-0.343-0.093-0.539-0.108v0.263c0.415 0.041 0.866 0.101 0.866 0.304 0 0.155-0.268 0.292-0.866 0.312v0.137h-0.318v-0.137h0zM21.401 21.703v-0.239c-0.223 0.011-0.363 0.058-0.363 0.125 0 0.059 0.151 0.089 0.363 0.114zM21.719 21.929v0.265c0.276-0.016 0.387-0.078 0.387-0.137 0-0.068-0.167-0.101-0.387-0.127z"></path>
<path fill="#f2f9ff" style="fill: var(--color5, #f2f9ff)" d="M19.216 21.993v0.621c0.047 0.049 0.105 0.095 0.171 0.14v-0.582c-0.076-0.058-0.134-0.118-0.171-0.179z"></path>
<path fill="#f2f9ff" style="fill: var(--color5, #f2f9ff)" d="M23.625 22.199v0.583c0.065-0.040 0.123-0.082 0.172-0.126v-0.606c-0.043 0.051-0.101 0.101-0.172 0.149z"></path>
<path fill="#f2f9ff" style="fill: var(--color5, #f2f9ff)" d="M19.52 22.261v0.573c0.053 0.029 0.11 0.056 0.172 0.082v-0.567c-0.063-0.028-0.12-0.058-0.172-0.088z"></path>
<path fill="#f2f9ff" style="fill: var(--color5, #f2f9ff)" d="M19.825 22.405v0.564c0.055 0.020 0.112 0.040 0.171 0.057v-0.562c-0.060-0.019-0.117-0.038-0.171-0.059z"></path>
<path fill="#5d6d7e" style="fill: var(--color3, #5d6d7e)" d="M23.443 21.137c-0.451-0.213-1.141-0.348-1.914-0.348-0.775 0-1.465 0.135-1.916 0.348h-0.549v0.591c0 0.519 1.102 0.941 2.465 0.941 1.359 0 2.463-0.422 2.463-0.941v-0.591h-0.548z"></path>
<path fill="#b8d1e6" style="fill: var(--color4, #b8d1e6)" d="M19.065 21.137v0.462c0 0.519 1.102 0.941 2.465 0.941 1.359 0 2.463-0.422 2.463-0.941v-0.462h-4.927z"></path>
<path fill="#b8d1e6" style="fill: var(--color4, #b8d1e6)" d="M23.992 21.137c0 0.519-1.103 0.941-2.463 0.941-1.363 0-2.465-0.422-2.465-0.941s1.102-0.94 2.465-0.94c1.36 0 2.463 0.42 2.463 0.94z"></path>
<path fill="#f2f9ff" style="fill: var(--color5, #f2f9ff)" d="M21.529 21.98c-1.415 0-2.366-0.436-2.366-0.843 0-0.406 0.951-0.841 2.366-0.841 1.414 0 2.364 0.435 2.364 0.841 0 0.399-0.971 0.843-2.364 0.843z"></path>
<path fill="#b8d1e6" style="fill: var(--color4, #b8d1e6)" d="M21.401 21.662c-0.411-0.012-0.718-0.074-0.929-0.158l0.264-0.139c0.147 0.062 0.378 0.12 0.665 0.137v-0.295c-0.411-0.039-0.841-0.096-0.841-0.293 0-0.155 0.327-0.279 0.841-0.296v-0.14h0.318v0.142c0.323 0.014 0.595 0.062 0.802 0.139l-0.263 0.132c-0.152-0.058-0.343-0.093-0.539-0.108v0.263c0.415 0.041 0.866 0.1 0.866 0.304 0 0.155-0.268 0.293-0.866 0.312v0.137h-0.318v-0.137h0zM21.401 21.014v-0.24c-0.223 0.011-0.363 0.058-0.363 0.125 0 0.060 0.151 0.090 0.363 0.115zM21.719 21.239v0.265c0.276-0.015 0.387-0.078 0.387-0.137 0-0.069-0.167-0.102-0.387-0.128z"></path>
<path fill="#f2f9ff" style="fill: var(--color5, #f2f9ff)" d="M19.216 21.303v0.621c0.047 0.049 0.105 0.096 0.171 0.14v-0.582c-0.076-0.059-0.134-0.119-0.171-0.179z"></path>
<path fill="#f2f9ff" style="fill: var(--color5, #f2f9ff)" d="M23.625 21.51v0.583c0.065-0.040 0.123-0.083 0.172-0.126v-0.606c-0.043 0.050-0.101 0.101-0.172 0.149z"></path>
<path fill="#f2f9ff" style="fill: var(--color5, #f2f9ff)" d="M19.52 21.572v0.573c0.053 0.029 0.11 0.056 0.172 0.082v-0.567c-0.063-0.028-0.12-0.057-0.172-0.087z"></path>
<path fill="#f2f9ff" style="fill: var(--color5, #f2f9ff)" d="M19.825 21.715v0.564c0.055 0.020 0.112 0.039 0.171 0.057v-0.562c-0.060-0.019-0.117-0.038-0.171-0.059z"></path>
<path fill="#5d6d7e" style="fill: var(--color3, #5d6d7e)" d="M23.443 20.447c-0.451-0.212-1.141-0.348-1.914-0.348-0.775 0-1.465 0.136-1.916 0.348h-0.549v0.592c0 0.519 1.102 0.941 2.465 0.941 1.359 0 2.463-0.422 2.463-0.941v-0.592h-0.548z"></path>
<path fill="#b8d1e6" style="fill: var(--color4, #b8d1e6)" d="M19.065 20.447v0.462c0 0.519 1.102 0.941 2.465 0.941 1.359 0 2.463-0.422 2.463-0.941v-0.462h-4.927z"></path>
<path fill="#b8d1e6" style="fill: var(--color4, #b8d1e6)" d="M23.992 20.447c0 0.519-1.103 0.942-2.463 0.942-1.363 0-2.465-0.422-2.465-0.942s1.102-0.939 2.465-0.939c1.36 0 2.463 0.419 2.463 0.939z"></path>
<path fill="#f2f9ff" style="fill: var(--color5, #f2f9ff)" d="M21.529 21.29c-1.415 0-2.366-0.436-2.366-0.843 0-0.405 0.951-0.841 2.366-0.841 1.414 0 2.364 0.436 2.364 0.841 0 0.399-0.971 0.843-2.364 0.843z"></path>
<path fill="#b8d1e6" style="fill: var(--color4, #b8d1e6)" d="M21.401 20.972c-0.411-0.012-0.718-0.075-0.929-0.158l0.264-0.138c0.147 0.062 0.378 0.12 0.665 0.137v-0.296c-0.411-0.040-0.841-0.096-0.841-0.294 0-0.155 0.327-0.278 0.841-0.296v-0.14h0.318v0.141c0.323 0.014 0.595 0.063 0.802 0.139l-0.263 0.132c-0.152-0.058-0.343-0.093-0.539-0.108v0.263c0.415 0.041 0.866 0.101 0.866 0.305 0 0.155-0.268 0.292-0.866 0.312v0.137h-0.318v-0.137h0zM21.401 20.323v-0.239c-0.223 0.011-0.363 0.058-0.363 0.125 0 0.059 0.151 0.090 0.363 0.114zM21.719 20.549v0.265c0.276-0.015 0.387-0.078 0.387-0.137 0-0.069-0.167-0.102-0.387-0.128z"></path>
<path fill="#f2f9ff" style="fill: var(--color5, #f2f9ff)" d="M19.216 20.613v0.622c0.047 0.049 0.105 0.096 0.171 0.14v-0.582c-0.076-0.058-0.134-0.118-0.171-0.18z"></path>
<path fill="#f2f9ff" style="fill: var(--color5, #f2f9ff)" d="M23.625 20.82v0.583c0.065-0.040 0.123-0.082 0.172-0.125v-0.606c-0.043 0.050-0.101 0.1-0.172 0.149z"></path>
<path fill="#f2f9ff" style="fill: var(--color5, #f2f9ff)" d="M19.52 20.882v0.573c0.053 0.029 0.11 0.056 0.172 0.082v-0.567c-0.063-0.028-0.12-0.058-0.172-0.087z"></path>
<path fill="#f2f9ff" style="fill: var(--color5, #f2f9ff)" d="M19.825 21.025v0.564c0.055 0.019 0.112 0.039 0.171 0.057v-0.562c-0.060-0.018-0.117-0.038-0.171-0.059z"></path>
<path fill="#5d6d7e" style="fill: var(--color3, #5d6d7e)" d="M23.443 19.758c-0.451-0.212-1.141-0.349-1.914-0.349-0.775 0-1.465 0.136-1.916 0.349h-0.549v0.591c0 0.519 1.102 0.941 2.465 0.941 1.359 0 2.463-0.422 2.463-0.941v-0.591h-0.548z"></path>
<path fill="#b8d1e6" style="fill: var(--color4, #b8d1e6)" d="M19.065 19.758v0.462c0 0.519 1.102 0.941 2.465 0.941 1.359 0 2.463-0.422 2.463-0.941v-0.462h-4.927z"></path>
<path fill="#b8d1e6" style="fill: var(--color4, #b8d1e6)" d="M23.992 19.758c0 0.519-1.103 0.941-2.463 0.941-1.363 0-2.465-0.422-2.465-0.941s1.102-0.94 2.465-0.94c1.36 0 2.463 0.42 2.463 0.94z"></path>
<path fill="#f2f9ff" style="fill: var(--color5, #f2f9ff)" d="M21.529 20.6c-1.415 0-2.366-0.436-2.366-0.842s0.951-0.841 2.366-0.841c1.414 0 2.364 0.435 2.364 0.841 0 0.399-0.971 0.842-2.364 0.842z"></path>
<path fill="#b8d1e6" style="fill: var(--color4, #b8d1e6)" d="M21.401 20.282c-0.411-0.012-0.718-0.075-0.929-0.158l0.264-0.139c0.147 0.063 0.378 0.12 0.665 0.137v-0.296c-0.411-0.039-0.841-0.096-0.841-0.294 0-0.155 0.327-0.278 0.841-0.295v-0.14h0.318v0.141c0.323 0.014 0.595 0.062 0.802 0.139l-0.263 0.132c-0.152-0.057-0.343-0.093-0.539-0.108v0.263c0.415 0.041 0.866 0.101 0.866 0.305 0 0.155-0.268 0.292-0.866 0.311v0.137h-0.318v-0.137h0zM21.401 19.634v-0.239c-0.223 0.010-0.363 0.058-0.363 0.125 0 0.059 0.151 0.090 0.363 0.114zM21.719 19.859v0.265c0.276-0.016 0.387-0.078 0.387-0.137 0-0.068-0.167-0.101-0.387-0.127z"></path>
<path fill="#f2f9ff" style="fill: var(--color5, #f2f9ff)" d="M19.216 19.923v0.621c0.047 0.049 0.105 0.095 0.171 0.14v-0.582c-0.076-0.058-0.134-0.118-0.171-0.179z"></path>
<path fill="#f2f9ff" style="fill: var(--color5, #f2f9ff)" d="M23.625 20.13v0.583c0.065-0.040 0.123-0.082 0.172-0.126v-0.606c-0.043 0.051-0.101 0.101-0.172 0.15z"></path>
<path fill="#f2f9ff" style="fill: var(--color5, #f2f9ff)" d="M19.52 20.192v0.573c0.053 0.029 0.11 0.056 0.172 0.082v-0.567c-0.063-0.028-0.12-0.058-0.172-0.088z"></path>
<path fill="#f2f9ff" style="fill: var(--color5, #f2f9ff)" d="M19.825 20.335v0.564c0.055 0.020 0.112 0.040 0.171 0.057v-0.562c-0.060-0.019-0.117-0.039-0.171-0.059z"></path>
<path fill="#5d6d7e" style="fill: var(--color3, #5d6d7e)" d="M23.443 19.068c-0.451-0.213-1.141-0.348-1.914-0.348-0.775 0-1.465 0.135-1.916 0.348h-0.549v0.591c0 0.519 1.102 0.941 2.465 0.941 1.359 0 2.463-0.422 2.463-0.941v-0.591h-0.548z"></path>
<path fill="#b8d1e6" style="fill: var(--color4, #b8d1e6)" d="M19.065 19.068v0.462c0 0.519 1.102 0.941 2.465 0.941 1.359 0 2.463-0.422 2.463-0.941v-0.462h-4.927z"></path>
<path fill="#b8d1e6" style="fill: var(--color4, #b8d1e6)" d="M23.992 19.068c0 0.519-1.103 0.941-2.463 0.941-1.363 0-2.465-0.422-2.465-0.941s1.102-0.94 2.465-0.94c1.36 0 2.463 0.421 2.463 0.94z"></path>
<path fill="#f2f9ff" style="fill: var(--color5, #f2f9ff)" d="M21.529 19.911c-1.415 0-2.366-0.436-2.366-0.843s0.951-0.841 2.366-0.841c1.414 0 2.364 0.435 2.364 0.841 0 0.399-0.971 0.843-2.364 0.843z"></path>
<path fill="#b8d1e6" style="fill: var(--color4, #b8d1e6)" d="M21.401 19.592c-0.411-0.012-0.718-0.074-0.929-0.158l0.264-0.138c0.147 0.062 0.378 0.12 0.665 0.137v-0.296c-0.411-0.039-0.841-0.096-0.841-0.293 0-0.155 0.327-0.279 0.841-0.295v-0.14h0.318v0.142c0.323 0.014 0.595 0.062 0.802 0.139l-0.263 0.132c-0.152-0.057-0.343-0.093-0.539-0.108v0.263c0.415 0.041 0.866 0.101 0.866 0.304 0 0.155-0.268 0.293-0.866 0.312v0.137h-0.318v-0.137h0zM21.401 18.944v-0.239c-0.223 0.011-0.363 0.058-0.363 0.125 0 0.060 0.151 0.090 0.363 0.115zM21.719 19.169v0.265c0.276-0.015 0.387-0.078 0.387-0.137 0-0.068-0.167-0.102-0.387-0.128z"></path>
<path fill="#f2f9ff" style="fill: var(--color5, #f2f9ff)" d="M19.216 19.234v0.621c0.047 0.049 0.105 0.096 0.171 0.14v-0.583c-0.076-0.058-0.134-0.118-0.171-0.179z"></path>
<path fill="#f2f9ff" style="fill: var(--color5, #f2f9ff)" d="M23.625 19.44v0.583c0.065-0.041 0.123-0.083 0.172-0.126v-0.606c-0.043 0.051-0.101 0.101-0.172 0.149z"></path>
<path fill="#f2f9ff" style="fill: var(--color5, #f2f9ff)" d="M19.52 19.502v0.573c0.053 0.029 0.11 0.056 0.172 0.082v-0.568c-0.063-0.028-0.12-0.057-0.172-0.087z"></path>
<path fill="#f2f9ff" style="fill: var(--color5, #f2f9ff)" d="M19.825 19.645v0.564c0.055 0.020 0.112 0.039 0.171 0.057v-0.562c-0.060-0.019-0.117-0.039-0.171-0.059z"></path>
<path fill="#5d6d7e" style="fill: var(--color3, #5d6d7e)" d="M23.443 18.378c-0.451-0.212-1.141-0.348-1.914-0.348-0.775 0-1.465 0.136-1.916 0.348h-0.549v0.592c0 0.519 1.102 0.941 2.465 0.941 1.359 0 2.463-0.422 2.463-0.941v-0.592h-0.548z"></path>
<path fill="#b8d1e6" style="fill: var(--color4, #b8d1e6)" d="M19.065 18.378v0.462c0 0.519 1.102 0.941 2.465 0.941 1.359 0 2.463-0.422 2.463-0.941v-0.462h-4.927z"></path>
<path fill="#b8d1e6" style="fill: var(--color4, #b8d1e6)" d="M23.992 18.378c0 0.519-1.103 0.942-2.463 0.942-1.363 0-2.465-0.422-2.465-0.942s1.102-0.939 2.465-0.939c1.36 0 2.463 0.42 2.463 0.939z"></path>
<path fill="#f2f9ff" style="fill: var(--color5, #f2f9ff)" d="M21.529 19.221c-1.415 0-2.366-0.435-2.366-0.843 0-0.406 0.951-0.841 2.366-0.841 1.414 0 2.364 0.435 2.364 0.841 0 0.399-0.971 0.843-2.364 0.843z"></path>
<path fill="#b8d1e6" style="fill: var(--color4, #b8d1e6)" d="M21.401 18.902c-0.411-0.012-0.718-0.075-0.929-0.158l0.264-0.138c0.147 0.062 0.378 0.12 0.665 0.137v-0.295c-0.411-0.039-0.841-0.096-0.841-0.294 0-0.155 0.327-0.278 0.841-0.295v-0.14h0.318v0.141c0.323 0.014 0.595 0.063 0.802 0.139l-0.263 0.132c-0.152-0.058-0.343-0.093-0.539-0.108v0.263c0.415 0.041 0.866 0.1 0.866 0.304 0 0.155-0.268 0.292-0.866 0.312v0.137h-0.318v-0.137h0zM21.401 18.254v-0.239c-0.223 0.011-0.363 0.058-0.363 0.125 0 0.059 0.151 0.090 0.363 0.114zM21.719 18.479v0.265c0.276-0.015 0.387-0.078 0.387-0.137 0-0.068-0.167-0.102-0.387-0.128z"></path>
<path fill="#f2f9ff" style="fill: var(--color5, #f2f9ff)" d="M19.216 18.543v0.622c0.047 0.049 0.105 0.096 0.171 0.14v-0.582c-0.076-0.058-0.134-0.118-0.171-0.18z"></path>
<path fill="#f2f9ff" style="fill: var(--color5, #f2f9ff)" d="M23.625 18.75v0.583c0.065-0.040 0.123-0.082 0.172-0.126v-0.606c-0.043 0.050-0.101 0.1-0.172 0.149z"></path>
<path fill="#f2f9ff" style="fill: var(--color5, #f2f9ff)" d="M19.52 18.812v0.572c0.053 0.029 0.11 0.056 0.172 0.083v-0.567c-0.063-0.028-0.12-0.057-0.172-0.087z"></path>
<path fill="#f2f9ff" style="fill: var(--color5, #f2f9ff)" d="M19.825 18.956v0.564c0.055 0.019 0.112 0.039 0.171 0.057v-0.563c-0.060-0.018-0.117-0.038-0.171-0.059z"></path>
<path fill="#5d6d7e" style="fill: var(--color3, #5d6d7e)" d="M23.443 17.688c-0.451-0.212-1.141-0.349-1.914-0.349-0.775 0-1.465 0.136-1.916 0.349h-0.549v0.591c0 0.519 1.102 0.941 2.465 0.941 1.359 0 2.463-0.422 2.463-0.941v-0.591h-0.548z"></path>
<path fill="#b8d1e6" style="fill: var(--color4, #b8d1e6)" d="M19.065 17.688v0.462c0 0.519 1.102 0.941 2.465 0.941 1.359 0 2.463-0.422 2.463-0.941v-0.462h-4.927z"></path>
<path fill="#b8d1e6" style="fill: var(--color4, #b8d1e6)" d="M23.992 17.688c0 0.519-1.103 0.941-2.463 0.941-1.363 0-2.465-0.422-2.465-0.941s1.102-0.94 2.465-0.94c1.36 0 2.463 0.42 2.463 0.94z"></path>
<path fill="#f2f9ff" style="fill: var(--color5, #f2f9ff)" d="M21.529 18.53c-1.415 0-2.366-0.436-2.366-0.842s0.951-0.841 2.366-0.841c1.414 0 2.364 0.435 2.364 0.841 0 0.399-0.971 0.842-2.364 0.842z"></path>
<path fill="#b8d1e6" style="fill: var(--color4, #b8d1e6)" d="M21.401 18.212c-0.411-0.012-0.718-0.074-0.929-0.158l0.264-0.139c0.147 0.063 0.378 0.12 0.665 0.137v-0.296c-0.411-0.039-0.841-0.096-0.841-0.293 0-0.155 0.327-0.279 0.841-0.296v-0.14h0.318v0.142c0.323 0.013 0.595 0.062 0.802 0.138l-0.263 0.132c-0.152-0.057-0.343-0.092-0.539-0.108v0.263c0.415 0.041 0.866 0.101 0.866 0.305 0 0.155-0.268 0.292-0.866 0.312v0.137h-0.318v-0.137h0zM21.401 17.564v-0.239c-0.223 0.010-0.363 0.058-0.363 0.125 0 0.059 0.151 0.090 0.363 0.114zM21.719 17.79v0.265c0.276-0.015 0.387-0.078 0.387-0.137 0-0.068-0.167-0.102-0.387-0.127z"></path>
<path fill="#f2f9ff" style="fill: var(--color5, #f2f9ff)" d="M19.216 17.854v0.622c0.047 0.049 0.105 0.095 0.171 0.14v-0.582c-0.076-0.058-0.134-0.118-0.171-0.18z"></path>
<path fill="#f2f9ff" style="fill: var(--color5, #f2f9ff)" d="M23.625 18.061v0.583c0.065-0.040 0.123-0.082 0.172-0.126v-0.607c-0.043 0.051-0.101 0.101-0.172 0.15z"></path>
<path fill="#f2f9ff" style="fill: var(--color5, #f2f9ff)" d="M19.52 18.122v0.573c0.053 0.029 0.11 0.056 0.172 0.082v-0.567c-0.063-0.028-0.12-0.058-0.172-0.088z"></path>
<path fill="#f2f9ff" style="fill: var(--color5, #f2f9ff)" d="M19.825 18.265v0.564c0.055 0.020 0.112 0.040 0.171 0.057v-0.562c-0.060-0.019-0.117-0.038-0.171-0.059z"></path>
<path fill="#5d6d7e" style="fill: var(--color3, #5d6d7e)" d="M23.443 16.998c-0.451-0.212-1.141-0.348-1.914-0.348-0.775 0-1.465 0.136-1.916 0.348h-0.549v0.591c0 0.519 1.102 0.941 2.465 0.941 1.359 0 2.463-0.422 2.463-0.941v-0.591h-0.548z"></path>
<path fill="#b8d1e6" style="fill: var(--color4, #b8d1e6)" d="M19.065 16.998v0.462c0 0.519 1.102 0.941 2.465 0.941 1.359 0 2.463-0.422 2.463-0.941v-0.462h-4.927z"></path>
<path fill="#b8d1e6" style="fill: var(--color4, #b8d1e6)" d="M23.992 16.998c0 0.519-1.103 0.941-2.463 0.941-1.363 0-2.465-0.422-2.465-0.941s1.102-0.94 2.465-0.94c1.36 0 2.463 0.42 2.463 0.94z"></path>
<path fill="#f2f9ff" style="fill: var(--color5, #f2f9ff)" d="M21.529 17.84c-1.415 0-2.366-0.436-2.366-0.842s0.951-0.841 2.366-0.841c1.414 0 2.364 0.435 2.364 0.841 0 0.398-0.971 0.842-2.364 0.842z"></path>
<path fill="#b8d1e6" style="fill: var(--color4, #b8d1e6)" d="M21.401 17.522c-0.411-0.012-0.718-0.075-0.929-0.158l0.264-0.138c0.147 0.062 0.378 0.12 0.665 0.137v-0.296c-0.411-0.039-0.841-0.096-0.841-0.293 0-0.155 0.327-0.279 0.841-0.296v-0.14h0.318v0.142c0.323 0.014 0.595 0.062 0.802 0.139l-0.263 0.132c-0.152-0.057-0.343-0.093-0.539-0.108v0.263c0.415 0.041 0.866 0.101 0.866 0.304 0 0.155-0.268 0.292-0.866 0.311v0.137h-0.318v-0.137h0zM21.401 16.874v-0.239c-0.223 0.011-0.363 0.058-0.363 0.125 0 0.060 0.151 0.090 0.363 0.115zM21.719 17.099v0.265c0.276-0.015 0.387-0.078 0.387-0.137 0-0.069-0.167-0.102-0.387-0.128z"></path>
<path fill="#f2f9ff" style="fill: var(--color5, #f2f9ff)" d="M19.216 17.164v0.621c0.047 0.049 0.105 0.096 0.171 0.14v-0.583c-0.076-0.058-0.134-0.117-0.171-0.179z"></path>
<path fill="#f2f9ff" style="fill: var(--color5, #f2f9ff)" d="M23.625 17.371v0.583c0.065-0.041 0.123-0.083 0.172-0.126v-0.606c-0.043 0.051-0.101 0.101-0.172 0.15z"></path>
<path fill="#f2f9ff" style="fill: var(--color5, #f2f9ff)" d="M19.52 17.432v0.573c0.053 0.029 0.11 0.056 0.172 0.082v-0.567c-0.063-0.028-0.12-0.057-0.172-0.088z"></path>
<path fill="#f2f9ff" style="fill: var(--color5, #f2f9ff)" d="M19.825 17.575v0.564c0.055 0.020 0.112 0.039 0.171 0.057v-0.562c-0.060-0.019-0.117-0.039-0.171-0.059z"></path>
<path fill="#5d6d7e" style="fill: var(--color3, #5d6d7e)" d="M23.443 16.308c-0.451-0.213-1.141-0.348-1.914-0.348-0.775 0-1.465 0.136-1.916 0.348h-0.549v0.592c0 0.519 1.102 0.941 2.465 0.941 1.359 0 2.463-0.422 2.463-0.941v-0.592h-0.548z"></path>
<path fill="#b8d1e6" style="fill: var(--color4, #b8d1e6)" d="M19.065 16.308v0.462c0 0.519 1.102 0.941 2.465 0.941 1.359 0 2.463-0.422 2.463-0.941v-0.462h-4.927z"></path>
<path fill="#b8d1e6" style="fill: var(--color4, #b8d1e6)" d="M23.992 16.308c0 0.519-1.103 0.942-2.463 0.942-1.363 0-2.465-0.422-2.465-0.942s1.102-0.94 2.465-0.94c1.36-0 2.463 0.42 2.463 0.94z"></path>
<path fill="#f2f9ff" style="fill: var(--color5, #f2f9ff)" d="M21.529 17.151c-1.415 0-2.366-0.436-2.366-0.843 0-0.406 0.951-0.841 2.366-0.841 1.414 0 2.364 0.435 2.364 0.841 0 0.399-0.971 0.843-2.364 0.843z"></path>
<path fill="#5d6d7e" style="fill: var(--color3, #5d6d7e)" d="M21.401 16.833c-0.411-0.012-0.718-0.075-0.929-0.158l0.264-0.138c0.147 0.062 0.378 0.12 0.665 0.137v-0.295c-0.411-0.039-0.841-0.096-0.841-0.294 0-0.155 0.327-0.279 0.841-0.295v-0.14h0.318v0.142c0.323 0.014 0.595 0.063 0.802 0.138l-0.263 0.132c-0.152-0.058-0.343-0.093-0.539-0.108v0.263c0.415 0.041 0.866 0.1 0.866 0.304 0 0.155-0.268 0.292-0.866 0.312v0.137h-0.318v-0.137h0zM21.401 16.184v-0.239c-0.223 0.011-0.363 0.058-0.363 0.125 0 0.060 0.151 0.090 0.363 0.114zM21.719 16.41v0.265c0.276-0.015 0.387-0.078 0.387-0.137 0-0.068-0.167-0.102-0.387-0.128z"></path>
<path fill="#f2f9ff" style="fill: var(--color5, #f2f9ff)" d="M19.216 16.474v0.622c0.047 0.049 0.105 0.096 0.171 0.14v-0.582c-0.076-0.058-0.134-0.118-0.171-0.18z"></path>
<path fill="#f2f9ff" style="fill: var(--color5, #f2f9ff)" d="M23.625 16.68v0.583c0.065-0.040 0.123-0.083 0.172-0.126v-0.606c-0.043 0.051-0.101 0.101-0.172 0.149z"></path>
<path fill="#f2f9ff" style="fill: var(--color5, #f2f9ff)" d="M19.52 16.743v0.572c0.053 0.029 0.11 0.056 0.172 0.083v-0.568c-0.063-0.028-0.12-0.057-0.172-0.087z"></path>
<path fill="#f2f9ff" style="fill: var(--color5, #f2f9ff)" d="M19.825 16.886v0.564c0.055 0.020 0.112 0.039 0.171 0.057v-0.563c-0.060-0.018-0.117-0.038-0.171-0.059z"></path>
<path fill="#5d6d7e" style="fill: var(--color3, #5d6d7e)" d="M17.918 22.517c-0.451-0.212-1.141-0.348-1.914-0.348-0.775 0-1.464 0.136-1.916 0.348h-0.548v0.591c0 0.519 1.102 0.942 2.464 0.942 1.36 0 2.462-0.423 2.462-0.942v-0.591h-0.549z"></path>
<path fill="#b8d1e6" style="fill: var(--color4, #b8d1e6)" d="M13.54 22.517v0.462c0 0.519 1.102 0.941 2.464 0.941 1.36 0 2.462-0.422 2.462-0.941v-0.462h-4.927z"></path>
<path fill="#b8d1e6" style="fill: var(--color4, #b8d1e6)" d="M18.466 22.517c0 0.519-1.103 0.941-2.462 0.941-1.363 0-2.464-0.422-2.464-0.941s1.102-0.94 2.464-0.94c1.36 0 2.462 0.42 2.462 0.94z"></path>
<path fill="#f2f9ff" style="fill: var(--color5, #f2f9ff)" d="M16.004 23.36c-1.415 0-2.366-0.436-2.366-0.843 0-0.406 0.951-0.841 2.366-0.841s2.363 0.436 2.363 0.841c0 0.399-0.97 0.843-2.364 0.843z"></path>
<path fill="#b8d1e6" style="fill: var(--color4, #b8d1e6)" d="M15.876 23.042c-0.411-0.012-0.718-0.075-0.929-0.158l0.263-0.138c0.147 0.062 0.379 0.12 0.666 0.137v-0.295c-0.411-0.040-0.842-0.096-0.842-0.294 0-0.155 0.327-0.278 0.842-0.295v-0.14h0.318v0.141c0.323 0.014 0.594 0.063 0.802 0.139l-0.263 0.132c-0.152-0.058-0.343-0.093-0.539-0.108v0.264c0.415 0.041 0.865 0.1 0.865 0.304 0 0.155-0.267 0.292-0.865 0.312v0.137h-0.318v-0.136zM15.876 22.393v-0.239c-0.223 0.011-0.363 0.058-0.363 0.125 0 0.059 0.152 0.090 0.363 0.114zM16.194 22.618v0.265c0.276-0.016 0.387-0.078 0.387-0.137 0-0.068-0.167-0.102-0.387-0.128z"></path>
<path fill="#f2f9ff" style="fill: var(--color5, #f2f9ff)" d="M13.691 22.683v0.622c0.047 0.049 0.105 0.095 0.171 0.14v-0.583c-0.076-0.058-0.134-0.118-0.171-0.179z"></path>
<path fill="#f2f9ff" style="fill: var(--color5, #f2f9ff)" d="M18.1 22.889v0.583c0.065-0.040 0.123-0.082 0.172-0.126v-0.606c-0.043 0.050-0.101 0.1-0.172 0.149z"></path>
<path fill="#f2f9ff" style="fill: var(--color5, #f2f9ff)" d="M13.995 22.951v0.572c0.053 0.029 0.11 0.057 0.172 0.083v-0.567c-0.063-0.028-0.119-0.057-0.172-0.087z"></path>
<path fill="#f2f9ff" style="fill: var(--color5, #f2f9ff)" d="M14.3 23.095v0.564c0.055 0.020 0.112 0.039 0.171 0.057v-0.562c-0.060-0.018-0.117-0.038-0.171-0.059z"></path>
<path fill="#5d6d7e" style="fill: var(--color3, #5d6d7e)" d="M17.918 21.828c-0.451-0.212-1.141-0.349-1.914-0.349-0.775 0-1.464 0.136-1.916 0.349h-0.548v0.591c0 0.519 1.102 0.941 2.464 0.941 1.36 0 2.462-0.422 2.462-0.941v-0.591h-0.549z"></path>
<path fill="#b8d1e6" style="fill: var(--color4, #b8d1e6)" d="M13.54 21.828v0.462c0 0.519 1.102 0.941 2.464 0.941 1.36 0 2.462-0.422 2.462-0.941v-0.462h-4.927z"></path>
<path fill="#b8d1e6" style="fill: var(--color4, #b8d1e6)" d="M18.466 21.828c0 0.519-1.103 0.941-2.462 0.941-1.363 0-2.464-0.422-2.464-0.941s1.102-0.94 2.464-0.94c1.36 0 2.462 0.42 2.462 0.94z"></path>
<path fill="#f2f9ff" style="fill: var(--color5, #f2f9ff)" d="M16.004 22.67c-1.415 0-2.366-0.436-2.366-0.842s0.951-0.841 2.366-0.841c1.414 0 2.363 0.435 2.363 0.841 0 0.398-0.97 0.842-2.364 0.842z"></path>
<path fill="#b8d1e6" style="fill: var(--color4, #b8d1e6)" d="M15.876 22.352c-0.411-0.012-0.718-0.075-0.929-0.158l0.263-0.139c0.147 0.063 0.379 0.12 0.666 0.137v-0.296c-0.411-0.039-0.842-0.096-0.842-0.294 0-0.155 0.327-0.279 0.842-0.295v-0.14h0.318v0.142c0.323 0.014 0.594 0.062 0.802 0.139l-0.263 0.132c-0.152-0.057-0.343-0.093-0.539-0.108v0.263c0.415 0.041 0.865 0.101 0.865 0.304 0 0.155-0.267 0.292-0.865 0.312v0.137h-0.318v-0.137zM15.876 21.703v-0.239c-0.223 0.011-0.363 0.058-0.363 0.125 0 0.059 0.152 0.089 0.363 0.114zM16.194 21.929v0.265c0.276-0.016 0.387-0.078 0.387-0.137 0-0.068-0.167-0.101-0.387-0.127z"></path>
<path fill="#f2f9ff" style="fill: var(--color5, #f2f9ff)" d="M13.691 21.993v0.621c0.047 0.049 0.105 0.095 0.171 0.14v-0.582c-0.076-0.058-0.134-0.118-0.171-0.179z"></path>
<path fill="#f2f9ff" style="fill: var(--color5, #f2f9ff)" d="M18.1 22.199v0.583c0.065-0.040 0.123-0.082 0.172-0.126v-0.606c-0.043 0.051-0.101 0.101-0.172 0.149z"></path>
<path fill="#f2f9ff" style="fill: var(--color5, #f2f9ff)" d="M13.995 22.261v0.573c0.053 0.029 0.11 0.056 0.172 0.082v-0.567c-0.063-0.028-0.119-0.058-0.172-0.088z"></path>
<path fill="#f2f9ff" style="fill: var(--color5, #f2f9ff)" d="M14.3 22.405v0.564c0.055 0.020 0.112 0.040 0.171 0.057v-0.562c-0.060-0.019-0.117-0.038-0.171-0.059z"></path>
<path fill="#5d6d7e" style="fill: var(--color3, #5d6d7e)" d="M17.918 21.137c-0.451-0.213-1.141-0.348-1.914-0.348-0.775 0-1.464 0.135-1.916 0.348h-0.548v0.591c0 0.519 1.102 0.941 2.464 0.941 1.36 0 2.462-0.422 2.462-0.941v-0.591h-0.549z"></path>
<path fill="#b8d1e6" style="fill: var(--color4, #b8d1e6)" d="M13.54 21.137v0.462c0 0.519 1.102 0.941 2.464 0.941 1.36 0 2.462-0.422 2.462-0.941v-0.462h-4.927z"></path>
<path fill="#b8d1e6" style="fill: var(--color4, #b8d1e6)" d="M18.466 21.137c0 0.519-1.103 0.941-2.462 0.941-1.363 0-2.464-0.422-2.464-0.941s1.102-0.94 2.464-0.94c1.36 0 2.462 0.42 2.462 0.94z"></path>
<path fill="#f2f9ff" style="fill: var(--color5, #f2f9ff)" d="M16.004 21.98c-1.415 0-2.366-0.436-2.366-0.843 0-0.406 0.951-0.841 2.366-0.841s2.363 0.435 2.363 0.841c0 0.399-0.97 0.843-2.364 0.843z"></path>
<path fill="#b8d1e6" style="fill: var(--color4, #b8d1e6)" d="M15.876 21.662c-0.411-0.012-0.718-0.074-0.929-0.158l0.263-0.139c0.147 0.062 0.379 0.12 0.666 0.137v-0.295c-0.411-0.039-0.842-0.096-0.842-0.293 0-0.155 0.327-0.279 0.842-0.296v-0.14h0.318v0.142c0.323 0.014 0.594 0.062 0.802 0.139l-0.263 0.132c-0.152-0.058-0.343-0.093-0.539-0.108v0.263c0.415 0.041 0.865 0.1 0.865 0.304 0 0.155-0.267 0.293-0.865 0.312v0.137h-0.318v-0.137zM15.876 21.014v-0.24c-0.223 0.011-0.363 0.058-0.363 0.125 0 0.060 0.152 0.090 0.363 0.115zM16.194 21.239v0.265c0.276-0.015 0.387-0.078 0.387-0.137 0-0.069-0.167-0.102-0.387-0.128z"></path>
<path fill="#f2f9ff" style="fill: var(--color5, #f2f9ff)" d="M13.691 21.303v0.621c0.047 0.049 0.105 0.096 0.171 0.14v-0.582c-0.076-0.059-0.134-0.119-0.171-0.179z"></path>
<path fill="#f2f9ff" style="fill: var(--color5, #f2f9ff)" d="M18.1 21.51v0.583c0.065-0.040 0.123-0.083 0.172-0.126v-0.606c-0.043 0.050-0.101 0.101-0.172 0.149z"></path>
<path fill="#f2f9ff" style="fill: var(--color5, #f2f9ff)" d="M13.995 21.572v0.573c0.053 0.029 0.11 0.056 0.172 0.082v-0.567c-0.063-0.028-0.119-0.057-0.172-0.087z"></path>
<path fill="#f2f9ff" style="fill: var(--color5, #f2f9ff)" d="M14.3 21.715v0.564c0.055 0.020 0.112 0.039 0.171 0.057v-0.562c-0.060-0.019-0.117-0.038-0.171-0.059z"></path>
<path fill="#5d6d7e" style="fill: var(--color3, #5d6d7e)" d="M17.918 20.447c-0.451-0.212-1.141-0.348-1.914-0.348-0.775 0-1.464 0.136-1.916 0.348h-0.548v0.592c0 0.519 1.102 0.941 2.464 0.941 1.36 0 2.462-0.422 2.462-0.941v-0.592h-0.549z"></path>
<path fill="#b8d1e6" style="fill: var(--color4, #b8d1e6)" d="M13.54 20.447v0.462c0 0.519 1.102 0.941 2.464 0.941 1.36 0 2.462-0.422 2.462-0.941v-0.462h-4.927z"></path>
<path fill="#b8d1e6" style="fill: var(--color4, #b8d1e6)" d="M18.466 20.447c0 0.519-1.103 0.942-2.462 0.942-1.363 0-2.464-0.422-2.464-0.942s1.102-0.939 2.464-0.939c1.36 0 2.462 0.419 2.462 0.939z"></path>
<path fill="#f2f9ff" style="fill: var(--color5, #f2f9ff)" d="M16.004 21.29c-1.415 0-2.366-0.436-2.366-0.843 0-0.405 0.951-0.841 2.366-0.841s2.363 0.436 2.363 0.841c0 0.399-0.97 0.843-2.364 0.843z"></path>
<path fill="#b8d1e6" style="fill: var(--color4, #b8d1e6)" d="M15.876 20.972c-0.411-0.012-0.718-0.075-0.929-0.158l0.263-0.138c0.147 0.062 0.379 0.12 0.666 0.137v-0.296c-0.411-0.040-0.842-0.096-0.842-0.294 0-0.155 0.327-0.278 0.842-0.296v-0.14h0.318v0.141c0.323 0.014 0.594 0.063 0.802 0.139l-0.263 0.132c-0.152-0.058-0.343-0.093-0.539-0.108v0.263c0.415 0.041 0.865 0.101 0.865 0.305 0 0.155-0.267 0.292-0.865 0.312v0.137h-0.318v-0.137zM15.876 20.323v-0.239c-0.223 0.011-0.363 0.058-0.363 0.125 0 0.059 0.152 0.090 0.363 0.114zM16.194 20.549v0.265c0.276-0.015 0.387-0.078 0.387-0.137 0-0.069-0.167-0.102-0.387-0.128z"></path>
<path fill="#f2f9ff" style="fill: var(--color5, #f2f9ff)" d="M13.691 20.613v0.622c0.047 0.049 0.105 0.096 0.171 0.14v-0.582c-0.076-0.058-0.134-0.118-0.171-0.18z"></path>
<path fill="#f2f9ff" style="fill: var(--color5, #f2f9ff)" d="M18.1 20.82v0.583c0.065-0.040 0.123-0.082 0.172-0.125v-0.606c-0.043 0.050-0.101 0.1-0.172 0.149z"></path>
<path fill="#f2f9ff" style="fill: var(--color5, #f2f9ff)" d="M13.995 20.882v0.573c0.053 0.029 0.11 0.056 0.172 0.082v-0.567c-0.063-0.028-0.119-0.058-0.172-0.087z"></path>
<path fill="#f2f9ff" style="fill: var(--color5, #f2f9ff)" d="M14.3 21.025v0.564c0.055 0.019 0.112 0.039 0.171 0.057v-0.562c-0.060-0.018-0.117-0.038-0.171-0.059z"></path>
<path fill="#5d6d7e" style="fill: var(--color3, #5d6d7e)" d="M17.918 19.758c-0.451-0.212-1.141-0.349-1.914-0.349-0.775 0-1.464 0.136-1.916 0.349h-0.548v0.591c0 0.519 1.102 0.941 2.464 0.941 1.36 0 2.462-0.422 2.462-0.941v-0.591h-0.549z"></path>
<path fill="#b8d1e6" style="fill: var(--color4, #b8d1e6)" d="M13.54 19.758v0.462c0 0.519 1.102 0.941 2.464 0.941 1.36 0 2.462-0.422 2.462-0.941v-0.462h-4.927z"></path>
<path fill="#b8d1e6" style="fill: var(--color4, #b8d1e6)" d="M18.466 19.758c0 0.519-1.103 0.941-2.462 0.941-1.363 0-2.464-0.422-2.464-0.941s1.102-0.94 2.464-0.94c1.36 0 2.462 0.42 2.462 0.94z"></path>
<path fill="#f2f9ff" style="fill: var(--color5, #f2f9ff)" d="M16.004 20.6c-1.415 0-2.366-0.436-2.366-0.842s0.951-0.841 2.366-0.841c1.414 0 2.363 0.435 2.363 0.841 0 0.399-0.97 0.842-2.364 0.842z"></path>
<path fill="#b8d1e6" style="fill: var(--color4, #b8d1e6)" d="M15.876 20.282c-0.411-0.012-0.718-0.075-0.929-0.158l0.263-0.139c0.147 0.063 0.379 0.12 0.666 0.137v-0.296c-0.411-0.039-0.842-0.096-0.842-0.294 0-0.155 0.327-0.278 0.842-0.295v-0.14h0.318v0.141c0.323 0.014 0.594 0.062 0.802 0.139l-0.263 0.132c-0.152-0.057-0.343-0.093-0.539-0.108v0.263c0.415 0.041 0.865 0.101 0.865 0.305 0 0.155-0.267 0.292-0.865 0.311v0.137h-0.318v-0.137zM15.876 19.634v-0.239c-0.223 0.010-0.363 0.058-0.363 0.125 0 0.059 0.152 0.090 0.363 0.114zM16.194 19.859v0.265c0.276-0.016 0.387-0.078 0.387-0.137 0-0.068-0.167-0.101-0.387-0.127z"></path>
<path fill="#f2f9ff" style="fill: var(--color5, #f2f9ff)" d="M13.691 19.923v0.621c0.047 0.049 0.105 0.095 0.171 0.14v-0.582c-0.076-0.058-0.134-0.118-0.171-0.179z"></path>
<path fill="#f2f9ff" style="fill: var(--color5, #f2f9ff)" d="M18.1 20.13v0.583c0.065-0.040 0.123-0.082 0.172-0.126v-0.606c-0.043 0.051-0.101 0.101-0.172 0.15z"></path>
<path fill="#f2f9ff" style="fill: var(--color5, #f2f9ff)" d="M13.995 20.192v0.573c0.053 0.029 0.11 0.056 0.172 0.082v-0.567c-0.063-0.028-0.119-0.058-0.172-0.088z"></path>
<path fill="#f2f9ff" style="fill: var(--color5, #f2f9ff)" d="M14.3 20.335v0.564c0.055 0.020 0.112 0.040 0.171 0.057v-0.562c-0.060-0.019-0.117-0.039-0.171-0.059z"></path>
<path fill="#5d6d7e" style="fill: var(--color3, #5d6d7e)" d="M17.918 19.068c-0.451-0.213-1.141-0.348-1.914-0.348-0.775 0-1.464 0.135-1.916 0.348h-0.548v0.591c0 0.519 1.102 0.941 2.464 0.941 1.36 0 2.462-0.422 2.462-0.941v-0.591h-0.549z"></path>
<path fill="#b8d1e6" style="fill: var(--color4, #b8d1e6)" d="M13.54 19.068v0.462c0 0.519 1.102 0.941 2.464 0.941 1.36 0 2.462-0.422 2.462-0.941v-0.462h-4.927z"></path>
<path fill="#b8d1e6" style="fill: var(--color4, #b8d1e6)" d="M18.466 19.068c0 0.519-1.103 0.941-2.462 0.941-1.363 0-2.464-0.422-2.464-0.941s1.102-0.94 2.464-0.94c1.36 0 2.462 0.421 2.462 0.94z"></path>
<path fill="#f2f9ff" style="fill: var(--color5, #f2f9ff)" d="M16.004 19.911c-1.415 0-2.366-0.436-2.366-0.843s0.951-0.841 2.366-0.841c1.414 0 2.363 0.435 2.363 0.841 0 0.399-0.97 0.843-2.364 0.843z"></path>
<path fill="#5d6d7e" style="fill: var(--color3, #5d6d7e)" d="M15.876 19.592c-0.411-0.012-0.718-0.074-0.929-0.158l0.263-0.138c0.147 0.062 0.379 0.12 0.666 0.137v-0.296c-0.411-0.039-0.842-0.096-0.842-0.293 0-0.155 0.327-0.279 0.842-0.295v-0.14h0.318v0.142c0.323 0.014 0.594 0.062 0.802 0.139l-0.263 0.132c-0.152-0.057-0.343-0.093-0.539-0.108v0.263c0.415 0.041 0.865 0.101 0.865 0.304 0 0.155-0.267 0.293-0.865 0.312v0.137h-0.318v-0.137zM15.876 18.944v-0.239c-0.223 0.011-0.363 0.058-0.363 0.125 0 0.060 0.152 0.090 0.363 0.115zM16.194 19.169v0.265c0.276-0.015 0.387-0.078 0.387-0.137 0-0.068-0.167-0.102-0.387-0.128z"></path>
<path fill="#f2f9ff" style="fill: var(--color5, #f2f9ff)" d="M13.691 19.234v0.621c0.047 0.049 0.105 0.096 0.171 0.14v-0.583c-0.076-0.058-0.134-0.118-0.171-0.179z"></path>
<path fill="#f2f9ff" style="fill: var(--color5, #f2f9ff)" d="M18.1 19.44v0.583c0.065-0.041 0.123-0.083 0.172-0.126v-0.606c-0.043 0.051-0.101 0.101-0.172 0.149z"></path>
<path fill="#f2f9ff" style="fill: var(--color5, #f2f9ff)" d="M13.995 19.502v0.573c0.053 0.029 0.11 0.056 0.172 0.082v-0.568c-0.063-0.028-0.119-0.057-0.172-0.087z"></path>
<path fill="#f2f9ff" style="fill: var(--color5, #f2f9ff)" d="M14.3 19.645v0.564c0.055 0.020 0.112 0.039 0.171 0.057v-0.562c-0.060-0.019-0.117-0.039-0.171-0.059z"></path>
<path fill="#5d6d7e" style="fill: var(--color3, #5d6d7e)" d="M12.393 22.517c-0.452-0.212-1.141-0.348-1.914-0.348-0.774 0-1.465 0.136-1.916 0.348h-0.549v0.591c0 0.519 1.102 0.942 2.465 0.942 1.36 0 2.463-0.423 2.463-0.942v-0.591h-0.549z"></path>
<path fill="#b8d1e6" style="fill: var(--color4, #b8d1e6)" d="M8.014 22.517v0.462c0 0.519 1.102 0.941 2.465 0.941 1.36 0 2.463-0.422 2.463-0.941v-0.462h-4.927z"></path>
<path fill="#b8d1e6" style="fill: var(--color4, #b8d1e6)" d="M12.941 22.517c0 0.519-1.103 0.941-2.463 0.941-1.363 0-2.465-0.422-2.465-0.941s1.102-0.94 2.465-0.94c1.36 0 2.463 0.42 2.463 0.94z"></path>
<path fill="#f2f9ff" style="fill: var(--color5, #f2f9ff)" d="M10.479 23.36c-1.415 0-2.366-0.436-2.366-0.843 0-0.406 0.951-0.841 2.366-0.841 1.414 0 2.364 0.436 2.364 0.841 0 0.399-0.971 0.843-2.364 0.843z"></path>
<path fill="#b8d1e6" style="fill: var(--color4, #b8d1e6)" d="M10.35 23.042c-0.411-0.012-0.718-0.075-0.929-0.158l0.264-0.138c0.147 0.062 0.379 0.12 0.666 0.137v-0.295c-0.411-0.040-0.841-0.096-0.841-0.294 0-0.155 0.327-0.278 0.841-0.295v-0.14h0.319v0.141c0.323 0.014 0.594 0.063 0.802 0.139l-0.263 0.132c-0.152-0.058-0.343-0.093-0.539-0.108v0.264c0.415 0.041 0.866 0.1 0.866 0.304 0 0.155-0.267 0.292-0.866 0.312v0.137h-0.319v-0.136zM10.35 22.393v-0.239c-0.223 0.011-0.363 0.058-0.363 0.125 0 0.059 0.152 0.090 0.363 0.114zM10.669 22.618v0.265c0.276-0.016 0.387-0.078 0.387-0.137-0-0.068-0.167-0.102-0.387-0.128z"></path>
<path fill="#f2f9ff" style="fill: var(--color5, #f2f9ff)" d="M8.166 22.683v0.622c0.047 0.049 0.104 0.095 0.171 0.14v-0.583c-0.076-0.058-0.134-0.118-0.171-0.179z"></path>
<path fill="#f2f9ff" style="fill: var(--color5, #f2f9ff)" d="M12.575 22.889v0.583c0.065-0.040 0.123-0.082 0.171-0.126v-0.606c-0.043 0.050-0.101 0.1-0.171 0.149z"></path>
<path fill="#f2f9ff" style="fill: var(--color5, #f2f9ff)" d="M8.47 22.951v0.572c0.053 0.029 0.11 0.057 0.171 0.083v-0.567c-0.062-0.028-0.119-0.057-0.171-0.087z"></path>
<path fill="#f2f9ff" style="fill: var(--color5, #f2f9ff)" d="M8.775 23.095v0.564c0.055 0.020 0.112 0.039 0.171 0.057v-0.562c-0.060-0.018-0.117-0.038-0.171-0.059z"></path>
<path fill="#5d6d7e" style="fill: var(--color3, #5d6d7e)" d="M12.393 21.828c-0.452-0.212-1.141-0.349-1.914-0.349-0.774 0-1.465 0.136-1.916 0.349h-0.549v0.591c0 0.519 1.102 0.941 2.465 0.941 1.36 0 2.463-0.422 2.463-0.941v-0.591h-0.549z"></path>
<path fill="#b8d1e6" style="fill: var(--color4, #b8d1e6)" d="M8.014 21.828v0.462c0 0.519 1.102 0.941 2.465 0.941 1.36 0 2.463-0.422 2.463-0.941v-0.462h-4.927z"></path>
<path fill="#b8d1e6" style="fill: var(--color4, #b8d1e6)" d="M12.941 21.828c0 0.519-1.103 0.941-2.463 0.941-1.363 0-2.465-0.422-2.465-0.941s1.102-0.94 2.465-0.94c1.36 0 2.463 0.42 2.463 0.94z"></path>
<path fill="#f2f9ff" style="fill: var(--color5, #f2f9ff)" d="M10.479 22.67c-1.415 0-2.366-0.436-2.366-0.842s0.951-0.841 2.366-0.841c1.414 0 2.364 0.435 2.364 0.841 0 0.398-0.971 0.842-2.364 0.842z"></path>
<path fill="#5d6d7e" style="fill: var(--color3, #5d6d7e)" d="M10.35 22.352c-0.411-0.012-0.718-0.075-0.929-0.158l0.264-0.139c0.147 0.063 0.379 0.12 0.666 0.137v-0.296c-0.411-0.039-0.841-0.096-0.841-0.294 0-0.155 0.327-0.279 0.841-0.295v-0.14h0.319v0.142c0.323 0.014 0.594 0.062 0.802 0.139l-0.263 0.132c-0.152-0.057-0.343-0.093-0.539-0.108v0.263c0.415 0.041 0.866 0.101 0.866 0.304 0 0.155-0.267 0.292-0.866 0.312v0.137h-0.319v-0.137zM10.35 21.703v-0.239c-0.223 0.011-0.363 0.058-0.363 0.125 0 0.059 0.152 0.089 0.363 0.114zM10.669 21.929v0.265c0.276-0.016 0.387-0.078 0.387-0.137-0-0.068-0.167-0.101-0.387-0.127z"></path>
<path fill="#f2f9ff" style="fill: var(--color5, #f2f9ff)" d="M8.166 21.993v0.621c0.047 0.049 0.104 0.095 0.171 0.14v-0.582c-0.076-0.058-0.134-0.118-0.171-0.179z"></path>
<path fill="#f2f9ff" style="fill: var(--color5, #f2f9ff)" d="M12.575 22.199v0.583c0.065-0.040 0.123-0.082 0.171-0.126v-0.606c-0.043 0.051-0.101 0.101-0.171 0.149z"></path>
<path fill="#f2f9ff" style="fill: var(--color5, #f2f9ff)" d="M8.47 22.261v0.573c0.053 0.029 0.11 0.056 0.171 0.082v-0.567c-0.062-0.028-0.119-0.058-0.171-0.088z"></path>
<path fill="#f2f9ff" style="fill: var(--color5, #f2f9ff)" d="M8.775 22.405v0.564c0.055 0.020 0.112 0.040 0.171 0.057v-0.562c-0.060-0.019-0.117-0.038-0.171-0.059z"></path>
<path fill="#f2f9ff" style="fill: var(--color5, #f2f9ff)" d="M8.602 18.866c-0.282 0-0.535-0.2-0.59-0.488-0.064-0.326 0.15-0.643 0.477-0.706 1.801-0.349 3.621-0.971 5.411-1.849 3.834-1.881 6.866-4.644 8.11-7.391 0.138-0.303 0.495-0.437 0.798-0.3s0.437 0.495 0.3 0.798c-1.356 2.993-4.6 5.974-8.677 7.975-1.886 0.925-3.808 1.581-5.713 1.95-0.039 0.008-0.077 0.011-0.116 0.011z"></path>
<path fill="#f2f9ff" style="fill: var(--color5, #f2f9ff)" d="M23.397 12.626c-0.27 0-0.515-0.183-0.584-0.456l-0.692-2.757-2.758 0.693c-0.322 0.081-0.65-0.115-0.731-0.438s0.115-0.65 0.438-0.731l3.926-0.986 0.986 3.926c0.081 0.323-0.115 0.65-0.437 0.731-0.049 0.012-0.099 0.018-0.148 0.018z"></path>
</symbol>
</defs>
</svg>
